<?xml version="1.0" encoding="UTF-8"?>
<svg version="1.1" xmlns="http://www.w3.org/2000/svg" width="1024" height="1024">
<path d="M0 0 C2.40083539 1.53096749 4.84010976 2.85408958 7.36328125 4.171875 C13.29587335 7.374645 18.94096034 10.98427313 24.62207031 14.60668945 C30.90444295 18.60572198 37.24266678 22.50267627 43.61328125 26.359375 C52.00582603 31.4446397 60.35609056 36.59322504 68.67578125 41.796875 C69.70598389 42.44116455 70.73618652 43.0854541 71.79760742 43.74926758 C78.98032072 48.24990132 78.98032072 48.24990132 82.42578125 50.546875 C82.42578125 51.206875 82.42578125 51.866875 82.42578125 52.546875 C83.41578125 52.876875 84.40578125 53.206875 85.42578125 53.546875 C87.26623554 56.43901745 88.44415774 58.5077681 88.3828125 61.9765625 C87.02807941 65.61498852 84.54125249 66.97126391 81.36328125 68.921875 C80.71133789 69.33904785 80.05939453 69.7562207 79.38769531 70.18603516 C77.07742505 71.65673484 74.75219838 73.10186167 72.42578125 74.546875 C70.53603503 75.73370126 68.64673492 76.92123805 66.7578125 78.109375 C62.64928895 80.6882215 58.53404123 83.25590384 54.4140625 85.81640625 C49.21162493 89.05151467 44.03412924 92.32411826 38.86328125 95.609375 C31.9969608 99.96494777 25.06900919 104.21075798 18.11328125 108.421875 C9.59315026 113.58219413 1.15654063 118.85738043 -7.23364258 124.22607422 C-13.98602636 128.54495538 -20.77144182 132.80785975 -27.57421875 137.046875 C-37.2020813 143.04934502 -46.78517596 149.1189076 -56.3515625 155.21875 C-64.40830704 160.35586897 -72.48593067 165.45958963 -80.57421875 170.546875 C-81.59531738 171.18931152 -82.61641602 171.83174805 -83.66845703 172.49365234 C-86.94807139 174.55541674 -90.22959957 176.61410077 -93.51171875 178.671875 C-95.06802002 179.65015259 -95.06802002 179.65015259 -96.65576172 180.64819336 C-98.11393311 181.56097046 -98.11393311 181.56097046 -99.6015625 182.4921875 C-100.46515381 183.03375488 -101.32874512 183.57532227 -102.21850586 184.13330078 C-107.92648253 187.55844172 -107.92648253 187.55844172 -112.07421875 187.484375 C-116.46273505 186.30887956 -117.30367805 185.46160034 -119.57421875 181.546875 C-122.68733103 173.96475682 -124.87919654 166.16793698 -126.88671875 158.234375 C-127.33120361 156.49643677 -127.33120361 156.49643677 -127.78466797 154.72338867 C-130.95262521 142.22941285 -133.92079525 129.68994616 -136.76318359 117.11816406 C-137.29005946 114.7981339 -137.82385165 112.47965969 -138.36572266 110.16308594 C-146.02004023 77.40949808 -146.02004023 77.40949808 -139.91015625 64.69140625 C-134.87304407 56.60551565 -127.86942701 51.2909687 -120.01171875 46.109375 C-119.03452881 45.46150024 -119.03452881 45.46150024 -118.03759766 44.80053711 C-112.03622374 40.83125174 -106.00172262 36.91289991 -99.96459961 32.99829102 C-92.94856346 28.4472602 -85.95116597 23.86827332 -78.95803833 19.28216553 C-74.06450774 16.07329561 -69.16940035 12.8668306 -64.27423096 9.66046143 C-62.6460918 8.59395516 -61.0181106 7.52720775 -59.39013672 6.46044922 C-56.59886606 4.63272794 -53.80568058 2.80797883 -51.01171875 0.984375 C-50.20347656 0.45457031 -49.39523437 -0.07523437 -48.5625 -0.62109375 C-47.82257813 -1.10320312 -47.08265625 -1.5853125 -46.3203125 -2.08203125 C-45.68794678 -2.49525635 -45.05558105 -2.90848145 -44.40405273 -3.33422852 C-29.96322525 -12.16442363 -13.59939214 -8.76260674 0 0 Z " fill="#4C49FB" transform="translate(670.57421875,271.453125)"/>
<path d="M0 0 C0.86342931 -0.00384115 1.72685862 -0.00768229 2.61645246 -0.01163983 C3.56040836 -0.01077335 4.50436427 -0.00990687 5.4769249 -0.00901413 C6.4833355 -0.01198525 7.48974611 -0.01495637 8.52665401 -0.01801753 C11.90899143 -0.02670968 15.29129349 -0.02821322 18.6736412 -0.02970505 C21.09471843 -0.03433285 23.51579493 -0.03935746 25.93687057 -0.04475021 C32.52167077 -0.05787973 39.1064636 -0.06435696 45.69127369 -0.06876087 C49.80405748 -0.07152479 53.91683892 -0.07576242 58.02962112 -0.08026505 C69.42011111 -0.09245671 80.81059921 -0.10275616 92.20109558 -0.10614014 C92.92994258 -0.1063597 93.65878958 -0.10657927 94.40972285 -0.10680549 C95.14029893 -0.10702377 95.87087501 -0.10724204 96.62358975 -0.10746694 C98.103978 -0.1079104 99.58436624 -0.10835696 101.06475449 -0.10880661 C101.79907585 -0.10902804 102.5333972 -0.10924947 103.28997073 -0.10947761 C115.18598216 -0.1134248 127.08193232 -0.13087685 138.97792009 -0.15416613 C151.19578187 -0.17789218 163.41361291 -0.19034256 175.6314981 -0.19150805 C182.48959679 -0.19242412 189.34761562 -0.19815918 196.20569229 -0.21632767 C202.65709943 -0.23335875 209.10839551 -0.23497188 215.55982018 -0.22618866 C217.92692661 -0.2254174 220.29404113 -0.22977272 222.66112709 -0.23964691 C225.89442216 -0.25234282 229.12717848 -0.24650199 232.36046982 -0.23606491 C233.76301935 -0.24814952 233.76301935 -0.24814952 235.19390321 -0.26047826 C243.40376673 -0.19856708 249.97103041 1.75350837 256.13360214 7.38142776 C262.14254341 14.21392951 262.90509664 22.05065497 263.29766464 30.75642776 C263.37500839 32.22595901 263.37500839 32.22595901 263.45391464 33.72517776 C263.49774277 34.65588089 263.54157089 35.58658401 263.58672714 36.54549026 C263.64787704 37.82867142 263.64787704 37.82867142 263.7102623 39.13777542 C263.67266464 41.13142776 263.67266464 41.13142776 262.67266464 42.13142776 C259.59811703 42.22675104 256.54607307 42.25694156 253.47124863 42.24495316 C252.02262436 42.2451722 252.02262436 42.2451722 250.54473495 42.24539566 C247.33605366 42.24469611 244.12742961 42.23690173 240.91875839 42.22908401 C238.70058346 42.22721999 236.48240812 42.22579601 234.26423264 42.2247963 C228.41326393 42.22096992 222.56231987 42.21113862 216.71136093 42.20009232 C210.7459916 42.18988076 204.78061831 42.18529922 198.81524277 42.18025589 C187.1010392 42.16951646 175.38685397 42.15243861 163.67266464 42.13142776 C163.34266464 42.79142776 163.01266464 43.45142776 162.67266464 44.13142776 C162.01266464 43.80142776 161.35266464 43.47142776 160.67266464 43.13142776 C159.29611359 43.04187423 157.91529411 43.01384597 156.53583908 43.01790237 C155.66864746 43.01797287 154.80145584 43.01804337 153.90798569 43.018116 C152.95384781 43.02328232 151.99970993 43.02844864 151.01665878 43.03377151 C150.01300781 43.03523178 149.00935684 43.03669205 147.97529221 43.03819656 C145.78724874 43.04201132 143.59920839 43.048137 141.41117668 43.05626297 C137.93188106 43.0690229 134.45262362 43.07554327 130.97330856 43.08040237 C122.31494829 43.09378355 113.65662335 43.11776263 104.9982872 43.14180374 C97.70844275 43.16169025 90.41861274 43.1772781 83.12874794 43.18736649 C79.7309308 43.19376651 76.33317336 43.20628389 72.93537521 43.21907425 C60.47872461 43.24795716 48.10314246 42.95253926 35.67266464 42.13142776 C35.17766464 43.12142776 35.17766464 43.12142776 34.67266464 44.13142776 C34.67266464 43.47142776 34.67266464 42.81142776 34.67266464 42.13142776 C34.12394196 42.29565231 33.57521927 42.45987686 33.00986862 42.62907791 C30.35255168 43.20023164 27.99544508 43.21770922 25.27740097 43.16902542 C24.19981018 43.15215683 23.12221939 43.13528824 22.01197433 43.11790848 C20.85457245 43.09401047 19.69717056 43.07011246 18.50469589 43.04549026 C17.31414093 43.02425095 16.12358597 43.00301163 14.89695358 42.98112869 C12.38276922 42.93489475 9.86863313 42.88596881 7.35454941 42.83455276 C3.48998706 42.75652513 -0.37465811 42.68948253 -4.23944473 42.62361526 C-6.6789104 42.57739783 -9.11836413 42.5305448 -11.55780411 42.48299026 C-13.30301598 42.45321594 -13.30301598 42.45321594 -15.08348465 42.42284012 C-16.68568611 42.38808075 -16.68568611 42.38808075 -18.32025528 42.35261917 C-19.26527405 42.33405869 -20.21029282 42.3154982 -21.18394852 42.29637527 C-23.32733536 42.13142776 -23.32733536 42.13142776 -24.32733536 41.13142776 C-24.98172594 28.48494926 -25.27467839 16.07946048 -16.32733536 6.13142776 C-11.24783067 2.03851918 -6.53950679 0.01094934 0 0 Z " fill="#4C48FB" transform="translate(320.327335357666,706.8685722351074)"/>
<path d="M0 0 C2.51535196 3.19606157 4.55582199 6.54670562 6.58984375 10.06640625 C7.29203621 11.27586647 7.99435236 12.48525489 8.69677734 13.69458008 C9.24455841 14.6405455 9.24455841 14.6405455 9.80340576 15.60562134 C15.01631066 24.60048439 20.24716124 33.56897971 25.875 42.3125 C31.30079229 50.74826276 36.40264049 59.36373304 41.5 68 C47.11159054 77.50450255 52.76880482 86.95907666 58.71704102 96.25830078 C62.54346157 102.24579826 66.25338727 108.29900461 69.9375 114.375 C74.90643196 122.56806885 79.9130563 130.735691 84.96679688 138.87670898 C87.94983492 143.68376172 90.92188787 148.49720039 93.87890625 153.3203125 C100.81323204 164.628249 107.80770794 175.88746862 114.96777344 187.05395508 C119.51491849 194.17182452 123.88898518 201.38434148 128.18261719 208.65771484 C128.6418457 209.43324707 129.10107422 210.2087793 129.57421875 211.0078125 C129.97213623 211.68473145 130.37005371 212.36165039 130.7800293 213.05908203 C132.0041668 215.07806608 132.0041668 215.07806608 133.65161133 217.12451172 C135 219 135 219 135 221 C135.66 221.33 136.32 221.66 137 222 C138.37511225 224.23054301 139.67322618 226.45806875 140.9375 228.75 C141.6336454 229.99505412 142.33025237 231.23985028 143.02734375 232.484375 C143.35976074 233.08314453 143.69217773 233.68191406 144.03466797 234.29882812 C144.90375222 235.8303858 145.82580797 237.33159237 146.75390625 238.828125 C148 241 148 241 148 243 C147.34 243 146.68 243 146 243 C146 242.34 146 241.68 146 241 C144.02 241.99 144.02 241.99 142 243 C142 242.34 142 241.68 142 241 C141.44511902 241.02363113 140.89023804 241.04726227 140.31854248 241.0716095 C134.5444325 241.31248668 128.7698384 241.51757665 122.99365234 241.7019043 C120.83804615 241.77540193 118.6827311 241.85802753 116.52783203 241.94995117 C113.43032538 242.08050016 110.33325517 242.1782001 107.234375 242.26953125 C105.78886261 242.34105156 105.78886261 242.34105156 104.31414795 242.41401672 C97.62125342 242.56560409 97.62125342 242.56560409 94.53613281 239.75683594 C93.77574707 238.39220215 93.77574707 238.39220215 93 237 C92.51917969 236.28126709 92.03835938 235.56253418 91.54296875 234.82202148 C91.09566406 234.09571533 90.64835937 233.36940918 90.1875 232.62109375 C89.67590332 231.79311279 89.16430664 230.96513184 88.63720703 230.11206055 C88.09692871 229.22945557 87.55665039 228.34685059 87 227.4375 C86.42749512 226.50784424 85.85499023 225.57818848 85.26513672 224.62036133 C81.0056401 217.68680177 76.82271153 210.70889674 72.65332031 203.72094727 C68.15131156 196.20031388 63.50798498 188.77161299 58.8503418 181.34667969 C45.17961389 159.54427055 31.7090497 137.60478676 18.52124023 115.5065918 C13.67121463 107.38046521 8.72291486 99.32518578 3.6875 91.3125 C-2.20319707 81.93746356 -7.9544523 72.4872819 -13.62695312 62.97875977 C-16.49654569 58.16929517 -19.37628643 53.36832124 -22.31640625 48.6015625 C-22.82526367 47.77640137 -23.33412109 46.95124023 -23.85839844 46.10107422 C-24.79446825 44.58758323 -25.73367679 43.07602669 -26.67675781 41.56689453 C-28.80411289 38.12636757 -30.65313577 34.83967924 -32 31 C-30.90300781 30.54109375 -29.80601562 30.0821875 -28.67578125 29.609375 C-27.22117848 28.98999576 -25.76676112 28.37018098 -24.3125 27.75 C-23.59126953 27.44964844 -22.87003906 27.14929688 -22.12695312 26.83984375 C-11.71426973 22.3704728 -5.75169562 14.83313374 -1.5625 4.375 C-1.02809107 2.92158658 -0.50183359 1.46498004 0 0 Z " fill="#4C48FA" transform="translate(314,453)"/>
<path d="M0 0 C2.68616197 2.25313077 5.22755484 4.62854487 7.75 7.0625 C8.42740234 7.70791748 9.10480469 8.35333496 9.80273438 9.01831055 C11.87751613 11.00308481 13.94037898 12.99950686 16 15 C16.65806641 15.63615234 17.31613281 16.27230469 17.99414062 16.92773438 C19.83728129 18.71485253 21.67102175 20.51090013 23.5 22.3125 C24.0578418 22.85720947 24.61568359 23.40191895 25.19042969 23.96313477 C26.50007667 25.27006203 27.75605813 26.63038592 29 28 C29 28.66 29 29.32 29 30 C29.59167969 30.25910156 30.18335938 30.51820313 30.79296875 30.78515625 C33.15831069 32.08714093 34.550917 33.40490423 36.3125 35.4375 C37.11107422 36.33275391 37.11107422 36.33275391 37.92578125 37.24609375 C38.45751953 38.11427734 38.45751953 38.11427734 39 39 C37.75380332 42.73859003 36.66236967 43.09016856 33.33984375 45.0859375 C28.92159064 47.80431652 24.56122328 50.58616449 20.25390625 53.4765625 C19.34863693 54.08208702 19.34863693 54.08208702 18.42507935 54.69984436 C17.14284999 55.55758913 15.86090662 56.41576154 14.57922363 57.27432251 C3.91700421 64.41522151 -6.76942261 71.51860188 -17.48828125 78.57421875 C-18.46377426 79.21637329 -19.43926727 79.85852783 -20.44432068 80.5201416 C-25.25607554 83.68667428 -30.06948174 86.85067195 -34.88452148 90.01220703 C-39.17456017 92.8305113 -43.45683363 95.66024063 -47.73312378 98.49935913 C-49.19160324 99.46485247 -50.65276601 100.42631096 -52.11721802 101.38272095 C-53.96700117 102.59083284 -55.80683943 103.81266899 -57.64453125 105.0390625 C-58.63557861 105.69213379 -59.62662598 106.34520508 -60.64770508 107.01806641 C-63.91059686 109.76722629 -64.98804112 112.57048187 -66.1953125 116.578125 C-68.4583041 123.38907058 -73.83264781 128.5633329 -80 132 C-86.74652768 135.30917766 -95.47156682 135.09442596 -102.69921875 133.34765625 C-112.61409592 129.31595227 -118.89461348 121.65439969 -123.3125 112.1875 C-125.189429 103.48537462 -124.37655056 95.79492142 -120 88 C-115.48747829 81.33643167 -109.44469606 76.33759462 -101.51953125 74.390625 C-91.97990425 72.91161306 -84.99583467 74.91750192 -76.5078125 79.28125 C-73.98920448 80.26944792 -73.98920448 80.26944792 -71.54296875 79.1015625 C-70.76566406 78.61429687 -69.98835937 78.12703125 -69.1875 77.625 C-68.39730469 77.14289063 -67.60710938 76.66078125 -66.79296875 76.1640625 C-66.20128906 75.77992188 -65.60960937 75.39578125 -65 75 C-66.50978902 71.77114427 -68.36965793 68.94233596 -70.375 66 C-75.72411533 57.6133912 -79.70482073 48.10958691 -78 38 C-75.52615802 30.81828528 -71.1001918 25.41465177 -64.74609375 21.29296875 C-63.72580078 20.62330078 -62.70550781 19.95363281 -61.65429688 19.26367188 C-60.59275391 18.57853516 -59.53121094 17.89339844 -58.4375 17.1875 C-51.28855811 12.53289298 -44.25519929 7.79783232 -37.38208008 2.74291992 C-34.67572149 0.76273196 -31.94169556 -1.11820575 -29.125 -2.9375 C-28.26132812 -3.50339844 -27.39765625 -4.06929687 -26.5078125 -4.65234375 C-16.84205202 -9.84656083 -8.03318733 -6.07601388 0 0 Z " fill="#4C48FA" transform="translate(582,218)"/>
<path d="M0 0 C0.99 0.495 0.99 0.495 2 1 C1.938125 2.11375 1.87625 3.2275 1.8125 4.375 C1.86012199 13.37555568 5.26923985 21.15492538 11 28 C13.88143695 30.82022995 16.87611878 33.45230131 20 36 C17.44346262 38.8991661 14.5538266 40.51069821 11.1875 42.375 C9.9131709 43.08955809 8.6397967 43.80582078 7.3671875 44.5234375 C6.66819336 44.91756836 5.96919922 45.31169922 5.24902344 45.71777344 C1.07538823 48.09727106 -3.05429633 50.55116235 -7.1875 53 C-8.1165918 53.54994629 -9.04568359 54.09989258 -10.00292969 54.66650391 C-15.13657556 57.70691041 -20.26742369 60.7520295 -25.3984375 63.796875 C-27.61975153 65.11465099 -29.84110642 66.43235811 -32.0625 67.75 C-33.19010742 68.419104 -34.31771484 69.08820801 -35.47949219 69.77758789 C-41.36891568 73.26981539 -47.26664794 76.74711184 -53.1796875 80.19921875 C-53.77700684 80.54802094 -54.37432617 80.89682312 -54.98974609 81.25619507 C-55.58835449 81.60574249 -56.18696289 81.95528992 -56.80371094 82.31542969 C-58.0149887 83.02276121 -59.22625172 83.73011799 -60.4375 84.4375 C-61.03582642 84.78687622 -61.63415283 85.13625244 -62.25061035 85.49621582 C-72.10088297 91.25276528 -81.86503302 97.14201562 -91.59933472 103.09222412 C-98.94299188 107.57928588 -106.32078351 111.95368888 -113.86962891 116.0859375 C-118.96981141 118.9033148 -123.70605964 122.08748806 -128.44921875 125.46875 C-131.03896865 127.02339312 -133.02552638 127.61412234 -136 128 C-135.62875 127.236875 -135.2575 126.47375 -134.875 125.6875 C-133.08546795 118.14590066 -135.42805682 110.67702527 -139.37109375 104.14453125 C-142.9243109 99.46655471 -147.36457069 94.87847644 -153 93 C-153 92.34 -153 91.68 -153 91 C-151.95392578 90.4121875 -151.95392578 90.4121875 -150.88671875 89.8125 C-139.5397141 83.38391617 -128.34103926 76.70508039 -117.12945557 70.04440308 C-111.6137307 66.76840204 -106.08830821 63.50895009 -100.5625 60.25 C-92.74463933 55.63650578 -84.95350762 50.9801888 -77.17480469 46.30102539 C-72.07094552 43.23375371 -66.95054498 40.19710364 -61.8125 37.1875 C-54.91427007 33.14274815 -48.04579019 29.04959068 -41.1875 24.9375 C-40.15012695 24.31641357 -39.11275391 23.69532715 -38.04394531 23.05541992 C-32.74859093 19.87796667 -27.46757076 16.68044734 -22.2118988 13.43788147 C-19.6271398 11.84319888 -17.03916352 10.25377089 -14.45132446 8.66409302 C-13.19522975 7.88995487 -11.94096134 7.11284533 -10.68856812 6.33273315 C-8.94378352 5.24597061 -7.19331673 4.16897453 -5.44140625 3.09375 C-3.93622437 2.16079102 -3.93622437 2.16079102 -2.40063477 1.20898438 C-1.21232056 0.61053711 -1.21232056 0.61053711 0 0 Z " fill="#4C48FA" transform="translate(448,320)"/>
<path d="M0 0 C7.03666033 5.73615545 11.69222909 13.16466294 12.79296875 22.27734375 C13.08642239 30.54038035 10.65972271 38.07675119 5.5546875 44.6171875 C-0.4418971 50.85774449 -9.10665591 55.1774304 -17.8125 55.52734375 C-26.76046891 54.77061641 -34.15535071 51.83617566 -40.5703125 45.52734375 C-46.88146621 38.04599695 -48.82831863 31.11141306 -48.72265625 21.47265625 C-48.02887859 13.54795655 -44.45144535 6.52187917 -38.4453125 1.3046875 C-26.18043789 -7.27296215 -12.78704794 -8.86514186 0 0 Z " fill="#4C48F8" transform="translate(292.4453125,419.6953125)"/>
<path d="M0 0 C5.92857776 7.71116366 7.59951788 17.21795394 6.75 26.828125 C5.00237267 38.00045685 0.55241262 47.8480042 -8.625 54.6875 C-19.97976889 62.16216295 -32.49520703 64.52964456 -45.8515625 61.91796875 C-55.45614153 59.11762623 -63.99598405 54.15627716 -71 47 C-69.80650818 43.41952455 -69.01666507 43.10887715 -65.87109375 41.21484375 C-65.00959717 40.68971191 -64.14810059 40.16458008 -63.26049805 39.62353516 C-62.32890869 39.06714355 -61.39731934 38.51075195 -60.4375 37.9375 C-58.49459993 36.75682588 -56.55189302 35.57583384 -54.609375 34.39453125 C-53.64837891 33.81396973 -52.68738281 33.2334082 -51.69726562 32.63525391 C-48.17277468 30.49848342 -44.67716668 28.31801329 -41.1875 26.125 C-39.91941862 25.33049325 -38.65118298 24.53623264 -37.3828125 23.7421875 C-36.70508789 23.31776367 -36.02736328 22.89333984 -35.32910156 22.45605469 C-32.55216469 20.72003252 -29.77219004 18.98892104 -26.9921875 17.2578125 C-25.93104736 16.5963623 -24.86990723 15.93491211 -23.77661133 15.25341797 C-21.68856844 13.95190032 -19.59989902 12.65138709 -17.51049805 11.35205078 C-11.60389278 7.6677084 -5.76483012 3.90267918 0 0 Z " fill="#FCBF1F" transform="translate(697,385)"/>
<path d="M0 0 C4.46853055 1.48951018 6.78059523 5.04432619 9 9 C11.37102567 14.48770959 11.4670984 19.92577366 11.6875 25.8125 C11.75807617 27.26172852 11.75807617 27.26172852 11.83007812 28.74023438 C12.05518365 33.99146646 12.05518365 33.99146646 12 36 C10.06775535 37.93224465 7.16389611 37.12018438 4.59291077 37.12442017 C3.67078293 37.12082489 2.74865509 37.11722961 1.79858398 37.11352539 C0.34995972 37.11374443 0.34995972 37.11374443 -1.12792969 37.1139679 C-4.33661099 37.11326834 -7.54523503 37.10547397 -10.75390625 37.09765625 C-12.97208118 37.09579222 -15.19025652 37.09436825 -17.40843201 37.09336853 C-23.25940071 37.08954216 -29.11034477 37.07971086 -34.96130371 37.06866455 C-40.92667304 37.05845299 -46.89204633 37.05387146 -52.85742188 37.04882812 C-64.57162544 37.03808869 -76.28581067 37.02101085 -88 37 C-88.33 37.66 -88.66 38.32 -89 39 C-89.66 38.67 -90.32 38.34 -91 38 C-92.37655105 37.91044647 -93.75737053 37.8824182 -95.13682556 37.88647461 C-96.00401718 37.8865451 -96.8712088 37.8866156 -97.76467896 37.88668823 C-98.71881683 37.89185455 -99.67295471 37.89702087 -100.65600586 37.90234375 C-101.65965683 37.90380402 -102.6633078 37.90526428 -103.69737244 37.9067688 C-105.88541591 37.91058355 -108.07345625 37.91670923 -110.26148796 37.92483521 C-113.74078359 37.93759513 -117.22004103 37.9441155 -120.69935608 37.94897461 C-129.35771635 37.96235579 -138.01604129 37.98633486 -146.67437744 38.01037598 C-153.96422189 38.03026249 -161.2540519 38.04585034 -168.5439167 38.05593872 C-171.94173385 38.06233875 -175.33949128 38.07485612 -178.73728943 38.08764648 C-191.19394003 38.11652939 -203.56952218 37.82111149 -216 37 C-216.495 37.99 -216.495 37.99 -217 39 C-217 38.34 -217 37.68 -217 37 C-217.54872269 37.16422455 -218.09744537 37.3284491 -218.66279602 37.49765015 C-221.32011296 38.06880388 -223.67721957 38.08628146 -226.39526367 38.03759766 C-227.47285446 38.02072906 -228.55044525 38.00386047 -229.66069031 37.98648071 C-230.81809219 37.9625827 -231.97549408 37.93868469 -233.16796875 37.9140625 C-234.35852371 37.89282318 -235.54907867 37.87158386 -236.77571106 37.84970093 C-239.28989542 37.80346699 -241.80403151 37.75454104 -244.31811523 37.703125 C-248.18267758 37.62509737 -252.04732275 37.55805477 -255.91210938 37.4921875 C-258.35157505 37.44597007 -260.79102878 37.39911703 -263.23046875 37.3515625 C-264.97568062 37.32178818 -264.97568062 37.32178818 -266.75614929 37.29141235 C-268.35835075 37.25665298 -268.35835075 37.25665298 -269.99291992 37.22119141 C-270.93793869 37.20263092 -271.88295746 37.18407043 -272.85661316 37.16494751 C-275 37 -275 37 -276 36 C-276.12898644 33.50726202 -276.19030991 31.05601574 -276.1875 28.5625 C-276.18669434 27.83981934 -276.18588867 27.11713867 -276.18505859 26.37255859 C-276.02179991 12.02179991 -276.02179991 12.02179991 -272 8 C-272.33 9.98 -272.66 11.96 -273 14 C-273.33 20.93 -273.66 27.86 -274 35 C-180.28 35 -86.56 35 10 35 C9.77222716 17.65500797 9.77222716 17.65500797 2.33984375 3.62890625 C1 2 1 2 0 0 Z " fill="#3935C6" transform="translate(572,712)"/>
<path d="M0 0 C4.46853055 1.48951018 6.78059523 5.04432619 9 9 C11.37102567 14.48770959 11.4670984 19.92577366 11.6875 25.8125 C11.73455078 26.77865234 11.78160156 27.74480469 11.83007812 28.74023438 C12.05518365 33.99146646 12.05518365 33.99146646 12 36 C10.14418034 37.85581966 7.50601694 37.12004366 5.03713989 37.12442017 C4.18046722 37.12082489 3.32379456 37.11722961 2.44116211 37.11352539 C1.54368759 37.11367142 0.64621307 37.11381744 -0.27845764 37.1139679 C-3.25988134 37.11326842 -6.2412434 37.10547441 -9.22265625 37.09765625 C-11.28388942 37.09579219 -13.34512304 37.09436823 -15.40635681 37.09336853 C-20.8430401 37.08954237 -26.27969686 37.07971126 -31.71636963 37.06866455 C-37.25947714 37.05845253 -42.80258892 37.05387136 -48.34570312 37.04882812 C-59.23048043 37.03808908 -70.11523802 37.02101149 -81 37 C-81 36.67 -81 36.34 -81 36 C-51.3 35.67 -21.6 35.34 9 35 C9.77801653 17.53464813 9.77801653 17.53464813 2.33984375 3.62890625 C1 2 1 2 0 0 Z " fill="#453FD0" transform="translate(572,712)"/>
<path d="M0 0 C0.66 0.33 1.32 0.66 2 1 C1.13117188 1.53109375 0.26234375 2.0621875 -0.6328125 2.609375 C-1.79691243 3.3228556 -2.96097281 4.03640073 -4.125 4.75 C-4.69476563 5.09804688 -5.26453125 5.44609375 -5.8515625 5.8046875 C-9.62662342 8.12120215 -13.32845648 10.5225451 -17 13 C-16.34773438 13.51046875 -15.69546875 14.0209375 -15.0234375 14.546875 C-7.37919688 20.90580083 -3.13663732 27.59008803 0 37 C0.12781786 39.67394964 0.04391871 42.32095857 0 45 C6.47169318 41.53038503 12.81281427 37.95629937 19.00390625 34.00390625 C19.99197266 33.50697266 19.99197266 33.50697266 21 33 C21.99 33.495 21.99 33.495 23 34 C19.63142476 36.13531588 16.25408741 38.25636583 12.875 40.375 C11.44800781 41.27992188 11.44800781 41.27992188 9.9921875 42.203125 C9.0640625 42.78320312 8.1359375 43.36328125 7.1796875 43.9609375 C5.90714111 44.76217041 5.90714111 44.76217041 4.60888672 45.57958984 C1.8091603 47.1039028 -0.95403918 48.07804251 -4 49 C-3.62875 48.236875 -3.2575 47.47375 -2.875 46.6875 C-1.08546795 39.14590066 -3.42805682 31.67702527 -7.37109375 25.14453125 C-10.9243109 20.46655471 -15.36457069 15.87847644 -21 14 C-21 13.34 -21 12.68 -21 12 C-10.74609375 6.140625 -10.74609375 6.140625 -8.88232422 5.08398438 C-7.59298842 4.34148749 -6.31367536 3.58138821 -5.04345703 2.80664062 C-3.39554754 1.81370786 -1.70060501 0.89970203 0 0 Z " fill="#3E39CE" transform="translate(316,399)"/>
<path d="M0 0 C2.99953192 2.49564859 3.71870563 4.85343328 4.81640625 8.54296875 C7.61939719 15.88410931 10.66207964 23.31764867 18 27 C33.73971657 31.05007733 52.00156332 28.43759777 68 27 C68.495 28.98 68.495 28.98 69 31 C68.34 31 67.68 31 67 31 C67 30.34 67 29.68 67 29 C65.68 29.66 64.36 30.32 63 31 C63 30.34 63 29.68 63 29 C62.16767853 29.0354467 62.16767853 29.0354467 61.31854248 29.0716095 C55.5444325 29.31248668 49.7698384 29.51757665 43.99365234 29.7019043 C41.83804615 29.77540193 39.6827311 29.85802753 37.52783203 29.94995117 C34.43032538 30.08050016 31.33325517 30.1782001 28.234375 30.26953125 C27.27070007 30.31721146 26.30702515 30.36489166 25.31414795 30.41401672 C18.6248634 30.56552232 18.6248634 30.56552232 15.56030273 27.79199219 C14.78795288 26.40995605 14.78795288 26.40995605 14 25 C13.46157471 24.19747803 12.92314941 23.39495605 12.3684082 22.56811523 C10.67753197 19.86129125 8.99046712 17.15235046 7.3125 14.4375 C6.71888672 13.49197266 6.12527344 12.54644531 5.51367188 11.57226562 C4.66579102 10.20424805 4.66579102 10.20424805 3.80078125 8.80859375 C3.28684814 7.98157959 2.77291504 7.15456543 2.2434082 6.30249023 C1.09029484 4.16720414 0.45332222 2.37083091 0 0 Z " fill="#302DBA" transform="translate(393,665)"/>
<path d="M0 0 C0.66 0.33 1.32 0.66 2 1 C-1.42388092 4.82669043 -4.00724943 6.72278474 -9 8 C-8.67 8.99 -8.34 9.98 -8 11 C-8.33 11.99 -8.66 12.98 -9 14 C-10.32 13.34 -11.64 12.68 -13 12 C-13 10.68 -13 9.36 -13 8 C-10.87856238 6.33571725 -8.93800775 5.02211523 -6.625 3.6875 C-6.02171875 3.31560547 -5.4184375 2.94371094 -4.796875 2.56054688 C-3.2403847 1.63184099 -1.62281466 0.80723557 0 0 Z " fill="#E3AB2A" transform="translate(640,421)"/>
<path d="M0 0 C0.66 0.33 1.32 0.66 2 1 C-1.61668077 3.36714466 -5.2446 5.71646084 -8.875 8.0625 C-9.90753906 8.73861328 -10.94007813 9.41472656 -12.00390625 10.11132812 C-12.99003906 10.74619141 -13.97617187 11.38105469 -14.9921875 12.03515625 C-16.35899658 12.92279663 -16.35899658 12.92279663 -17.75341797 13.82836914 C-18.86547607 14.40832642 -18.86547607 14.40832642 -20 15 C-20.66 14.67 -21.32 14.34 -22 14 C-20.68 13.01 -19.36 12.02 -18 11 C-18.33 10.34 -18.66 9.68 -19 9 C-17.906875 8.814375 -16.81375 8.62875 -15.6875 8.4375 C-10.5406779 7.20373585 -6.62077229 4.35204091 -2.3203125 1.36328125 C-1.55460938 0.91339844 -0.78890625 0.46351563 0 0 Z " fill="#5042BF" transform="translate(667,391)"/>
<path d="M0 0 C0.99 0.33 1.98 0.66 3 1 C0.26738644 4.1913735 -3.25197736 5.99641575 -6.875 8 C-11.90690866 10.8056109 -11.90690866 10.8056109 -16.8203125 13.8125 C-17.53960937 14.204375 -18.25890625 14.59625 -19 15 C-19.66 14.67 -20.32 14.34 -21 14 C-18.41804795 12.37276975 -15.83451657 10.74814795 -13.25 9.125 C-12.52039063 8.66480469 -11.79078125 8.20460938 -11.0390625 7.73046875 C-10.33007812 7.28574219 -9.62109375 6.84101563 -8.890625 6.3828125 C-8.24125977 5.97434082 -7.59189453 5.56586914 -6.92285156 5.14501953 C-5 4 -5 4 -2.81933594 2.97607422 C-0.82548788 2.13159007 -0.82548788 2.13159007 0 0 Z " fill="#3934C9" transform="translate(465,355)"/>
<path d="M0 0 C0.66 0.33 1.32 0.66 2 1 C-1.39755422 4.79726648 -3.97801617 6.88400359 -9 8 C-9.66 7.67 -10.32 7.34 -11 7 C-9.21475351 5.80286983 -7.4215972 4.61752721 -5.625 3.4375 C-4.62726562 2.77621094 -3.62953125 2.11492187 -2.6015625 1.43359375 C-1.74304688 0.96050781 -0.88453125 0.48742187 0 0 Z " fill="#EBB021" transform="translate(659,409)"/>
<path d="M0 0 C0.66 0.33 1.32 0.66 2 1 C-4.87804878 7.87804878 -4.87804878 7.87804878 -8.875 8.3125 C-9.926875 8.1578125 -9.926875 8.1578125 -11 8 C-7.71644638 4.32241995 -4.37221763 2.18610882 0 0 Z " fill="#EBB020" transform="translate(680,396)"/>
<path d="M0 0 C2 1 2 1 3 3 C1.02 3.33 -0.96 3.66 -3 4 C-3 4.66 -3 5.32 -3 6 C-4.98 6.33 -6.96 6.66 -9 7 C-6.25604436 4.05278838 -3.61662784 1.80831392 0 0 Z " fill="#EAAF1F" transform="translate(691,389)"/>
<path d="M0 0 C2.50298434 2.93828597 3.46930939 5.17902761 4 9 C3.01 9 2.02 9 1 9 C0.67 7.35 0.34 5.7 0 4 C-1.32 3.67 -2.64 3.34 -4 3 C-2.68 2.01 -1.36 1.02 0 0 Z " fill="#E3A828" transform="translate(697,385)"/>
<path d="M0 0 C0.66 0.33 1.32 0.66 2 1 C-1.17320782 4.53586014 -3.16743695 6.58578031 -8 7 C-8 6.34 -8 5.68 -8 5 C-6.3203125 3.67578125 -6.3203125 3.67578125 -4.125 2.3125 C-3.40570312 1.85488281 -2.68640625 1.39726562 -1.9453125 0.92578125 C-1.30335938 0.62027344 -0.66140625 0.31476563 0 0 Z " fill="#EAAF23" transform="translate(640,421)"/>
<path d="M0 0 C1.8871875 0.0309375 1.8871875 0.0309375 3.8125 0.0625 C3.8125 0.3925 3.8125 0.7225 3.8125 1.0625 C-3.1175 2.5475 -3.1175 2.5475 -10.1875 4.0625 C-6.68766122 0.56266122 -4.74438704 -0.07777684 0 0 Z " fill="#554FF9" transform="translate(318.1875,708.9375)"/>
<path d="M0 0 C1.65 0 3.3 0 5 0 C2.25604436 2.94721162 -0.38337216 5.19168608 -4 7 C-4.66 6.67 -5.32 6.34 -6 6 C-2.25 3 -2.25 3 0 3 C0 2.01 0 1.02 0 0 Z " fill="#4C40C5" transform="translate(624,416)"/>
<path d="M0 0 C-2.36292656 2.52588702 -3.66462511 3.88820837 -7 5 C-7.33 3.68 -7.66 2.36 -8 1 C-5.29120665 -0.35439668 -2.99066732 -0.06501451 0 0 Z " fill="#4F46D8" transform="translate(680,384)"/>
<path d="M0 0 C0.66 0.33 1.32 0.66 2 1 C-2.455 4.465 -2.455 4.465 -7 8 C-7 7.01 -7 6.02 -7 5 C-5.46875 3.61328125 -5.46875 3.61328125 -3.5 2.3125 C-2.8503125 1.87550781 -2.200625 1.43851563 -1.53125 0.98828125 C-1.0259375 0.66214844 -0.520625 0.33601562 0 0 Z " fill="#3D38CB" transform="translate(518,239)"/>
<path d="M0 0 C2 2 2 2 2 4 C1.34 4 0.68 4 0 4 C0 3.34 0 2.68 0 2 C-1.98 2.99 -1.98 2.99 -4 4 C-4 3.34 -4 2.68 -4 2 C-5.65 2 -7.3 2 -9 2 C-9 1.67 -9 1.34 -9 1 C-7.54364629 0.77825067 -6.08477044 0.57301302 -4.625 0.375 C-3.40683594 0.20097656 -3.40683594 0.20097656 -2.1640625 0.0234375 C-1.44992187 0.01570312 -0.73578125 0.00796875 0 0 Z " fill="#3C38C2" transform="translate(460,692)"/>
<path d="M0 0 C3 1 3 1 3 1 Z " fill="#544DD6" transform="translate(578,750)"/>
<path d="M0 0 C2 1 2 1 2 1 Z " fill="#5B52F1" transform="translate(444,695)"/>
<path d="M0 0 C2 1 2 1 2 1 Z " fill="#5D56F0" transform="translate(413,695)"/>
<path d="M0 0 C2 1 2 1 2 1 Z " fill="#5451ED" transform="translate(288,480)"/>
<path d="M0 0 C2 1 2 1 2 1 Z " fill="#564DEC" transform="translate(297,408)"/>
<path d="" fill="#4C4D4C" transform="translate(0,0)"/>
<path d="" fill="#48484C" transform="translate(0,0)"/>
<path d="" fill="#5850E6" transform="translate(0,0)"/>
<path d="" fill="#5751EA" transform="translate(0,0)"/>
<path d="" fill="#5752ED" transform="translate(0,0)"/>
<path d="" fill="#5951EB" transform="translate(0,0)"/>
<path d="" fill="#5751EF" transform="translate(0,0)"/>
<path d="" fill="#5851ED" transform="translate(0,0)"/>
<path d="" fill="#5850ED" transform="translate(0,0)"/>
<path d="" fill="#5750EB" transform="translate(0,0)"/>
<path d="" fill="#514BCE" transform="translate(0,0)"/>
<path d="" fill="#5B4FE1" transform="translate(0,0)"/>
<path d="" fill="#5950E7" transform="translate(0,0)"/>
<path d="" fill="#5E55EE" transform="translate(0,0)"/>
<path d="" fill="#5F57EF" transform="translate(0,0)"/>
<path d="" fill="#5E54F2" transform="translate(0,0)"/>
<path d="" fill="#6058F0" transform="translate(0,0)"/>
<path d="" fill="#5E56F3" transform="translate(0,0)"/>
<path d="" fill="#6155F5" transform="translate(0,0)"/>
<path d="" fill="#5C57F6" transform="translate(0,0)"/>
<path d="" fill="#5E56F7" transform="translate(0,0)"/>
<path d="" fill="#6057F8" transform="translate(0,0)"/>
<path d="" fill="#6059F5" transform="translate(0,0)"/>
<path d="" fill="#6057F4" transform="translate(0,0)"/>
<path d="" fill="#5F56F7" transform="translate(0,0)"/>
<path d="" fill="#5B54F4" transform="translate(0,0)"/>
<path d="" fill="#5E54F1" transform="translate(0,0)"/>
<path d="" fill="#5B52E8" transform="translate(0,0)"/>
<path d="" fill="#5C51E8" transform="translate(0,0)"/>
<path d="" fill="#5C55F2" transform="translate(0,0)"/>
<path d="" fill="#5C53F4" transform="translate(0,0)"/>
<path d="" fill="#5A54F7" transform="translate(0,0)"/>
<path d="" fill="#5A53EE" transform="translate(0,0)"/>
<path d="" fill="#5C54F6" transform="translate(0,0)"/>
<path d="" fill="#5A51F4" transform="translate(0,0)"/>
<path d="" fill="#5B50F4" transform="translate(0,0)"/>
<path d="" fill="#5753F1" transform="translate(0,0)"/>
<path d="" fill="#5854F0" transform="translate(0,0)"/>
<path d="" fill="#5851F1" transform="translate(0,0)"/>
<path d="" fill="#5850F0" transform="translate(0,0)"/>
<path d="" fill="#5751EE" transform="translate(0,0)"/>
<path d="" fill="#5C53F2" transform="translate(0,0)"/>
<path d="" fill="#5B51EC" transform="translate(0,0)"/>
<path d="" fill="#5A51EE" transform="translate(0,0)"/>
<path d="" fill="#5B52EE" transform="translate(0,0)"/>
<path d="" fill="#5951EF" transform="translate(0,0)"/>
<path d="" fill="#5953EE" transform="translate(0,0)"/>
<path d="" fill="#584FE8" transform="translate(0,0)"/>
<path d="" fill="#5C53EA" transform="translate(0,0)"/>
<path d="" fill="#5B52E8" transform="translate(0,0)"/>
<path d="" fill="#5D55EB" transform="translate(0,0)"/>
<path d="" fill="#5E53F1" transform="translate(0,0)"/>
<path d="" fill="#5D53F0" transform="translate(0,0)"/>
<path d="" fill="#5A54F5" transform="translate(0,0)"/>
<path d="" fill="#EBB331" transform="translate(0,0)"/>
<path d="" fill="#5B51E1" transform="translate(0,0)"/>
<path d="" fill="#8B74B4" transform="translate(0,0)"/>
<path d="" fill="#856EBB" transform="translate(0,0)"/>
<path d="" fill="#856EB7" transform="translate(0,0)"/>
<path d="" fill="#E4B136" transform="translate(0,0)"/>
<path d="" fill="#C79E5F" transform="translate(0,0)"/>
<path d="" fill="#CD9F63" transform="translate(0,0)"/>
<path d="" fill="#5954F5" transform="translate(0,0)"/>
<path d="" fill="#5B53EE" transform="translate(0,0)"/>
<path d="" fill="#AD8997" transform="translate(0,0)"/>
<path d="" fill="#5A54F0" transform="translate(0,0)"/>
<path d="" fill="#5953F1" transform="translate(0,0)"/>
<path d="" fill="#5D52F5" transform="translate(0,0)"/>
<path d="" fill="#5B54F0" transform="translate(0,0)"/>
<path d="" fill="#5E54F3" transform="translate(0,0)"/>
<path d="" fill="#5A52F1" transform="translate(0,0)"/>
<path d="" fill="#7466C6" transform="translate(0,0)"/>
<path d="" fill="#5C54EE" transform="translate(0,0)"/>
<path d="" fill="#5C53F1" transform="translate(0,0)"/>
<path d="" fill="#5753F3" transform="translate(0,0)"/>
<path d="" fill="#5D52F4" transform="translate(0,0)"/>
<path d="" fill="#5B54F5" transform="translate(0,0)"/>
<path d="" fill="#5B55F2" transform="translate(0,0)"/>
<path d="" fill="#5C56FB" transform="translate(0,0)"/>
<path d="" fill="#5E51F0" transform="translate(0,0)"/>
<path d="" fill="#5A50F4" transform="translate(0,0)"/>
<path d="" fill="#5B53F2" transform="translate(0,0)"/>
<path d="" fill="#5950F6" transform="translate(0,0)"/>
<path d="" fill="#5650EC" transform="translate(0,0)"/>
<path d="" fill="#5C52F5" transform="translate(0,0)"/>
<path d="" fill="#5551EF" transform="translate(0,0)"/>
<path d="" fill="#5650F7" transform="translate(0,0)"/>
<path d="" fill="#5B52ED" transform="translate(0,0)"/>
<path d="" fill="#5E52F2" transform="translate(0,0)"/>
<path d="" fill="#544FEE" transform="translate(0,0)"/>
<path d="" fill="#5652F3" transform="translate(0,0)"/>
<path d="" fill="#594FFA" transform="translate(0,0)"/>
<path d="" fill="#5750F6" transform="translate(0,0)"/>
<path d="" fill="#574EEE" transform="translate(0,0)"/>
<path d="" fill="#5B55F7" transform="translate(0,0)"/>
<path d="" fill="#564FF4" transform="translate(0,0)"/>
<path d="" fill="#594FEF" transform="translate(0,0)"/>
<path d="" fill="#5653EB" transform="translate(0,0)"/>
<path d="" fill="#5752ED" transform="translate(0,0)"/>
<path d="" fill="#584FEA" transform="translate(0,0)"/>
</svg>
